<svg width="64" height="64" viewBox="0 0 64 64" fill="none" xmlns="http://www.w3.org/2000/svg">
<mask id="mask0" mask-type="alpha" maskUnits="userSpaceOnUse" x="0" y="0" width="64" height="64">
<circle cx="32" cy="32" r="32" fill="#7C62E3"/>
</mask>
<g mask="url(#mask0)">
<circle cx="32" cy="32" r="32" fill="#7C62E3"/>
<path d="M12.218 11.8555L11.1992 12.8742L12.5819 13.0198L13.3096 14.2569L13.8918 12.947L15.3472 12.7287L14.2556 11.7827L14.4739 10.4L13.2369 11.1277L11.9269 10.4728L12.218 11.8555Z" fill="white"/>
<path d="M14.6184 53.4554L13.5996 54.4742L15.055 54.6198L15.71 55.8569L16.3649 54.547L17.8203 54.3287L16.7288 53.3827L16.9471 52L15.71 52.6549L14.4001 52.0728L14.6184 53.4554Z" fill="white"/>
<path d="M19.1992 8.80091L20.3636 7.19995L22.0373 8.21875L20.873 9.89248L19.1992 8.80091Z" fill="white"/>
<path d="M46.2126 49.9688L18.7047 50.0919C17.4739 50.0919 16.4893 49.1072 16.4278 47.8764L16.3047 24.5533L48.2433 24.4302L48.3664 47.7534C48.428 48.9842 47.4433 49.9688 46.2126 49.9688Z" fill="#CEBFFF"/>
<path d="M48.298 24.4223L16.3594 24.5686L16.387 30.5994L48.3256 30.4532L48.298 24.4223Z" fill="#997CF7"/>
<path d="M49.4763 28.7381L15.1992 28.9227V24.9843C15.1992 23.6919 16.2454 22.7073 17.4762 22.7073L47.1379 22.5842C48.4302 22.5842 49.4148 23.6304 49.4148 24.8612L49.4763 28.7381Z" fill="#CEBFFF"/>
<path d="M35.135 20.8613H30.2734V50.4H35.135V20.8613Z" fill="#997CF7"/>
<path d="M34.2102 18.4617C34.2102 18.4617 36.1179 14.4617 41.2256 14.7078C41.2256 14.7078 43.0102 15.0155 43.6871 15.3847C43.6871 15.3847 44.6102 20.6771 41.5333 24.1232C41.5333 24.1232 40.5487 25.1694 39.8717 25.4771C39.8717 25.4771 36.2409 25.9079 33.4102 21.8463L34.2102 18.4617Z" fill="#CEBFFF"/>
<path d="M24.8599 25.2924C24.8599 25.2924 28.5522 25.9693 31.5676 22.5231L31.1369 21.4154C31.1369 21.4154 30.8907 19.5077 31.1369 18.4616C31.1369 18.4616 29.1676 14.4 24.4291 14.4C24.4291 14.4 23.1368 14.4 22.0907 14.8308C22.0907 14.8923 20.4906 22.0308 24.8599 25.2924Z" fill="#CEBFFF"/>
<path d="M34.4589 19.1388C34.4589 19.1388 34.5204 18.1542 32.6127 18.585C32.6127 18.585 30.9512 18.9542 30.9512 19.9389C30.9512 19.9389 30.705 22.2773 31.6897 22.4619C31.6897 22.4619 31.9358 22.585 32.2435 22.5235C32.4281 22.4619 32.5512 22.5235 32.7358 22.585C32.9204 22.6466 33.1666 22.7081 33.2897 22.6466C33.4743 22.5235 34.4589 20.985 34.4589 19.1388Z" fill="#997CF7"/>
<path d="M34.4589 18.3385C34.4589 18.3385 34.5204 17.3539 32.6127 17.7847C32.6127 17.7847 30.9512 18.1539 30.9512 19.1385C30.9512 19.1385 30.705 21.477 31.6897 21.6616C31.6897 21.6616 31.9358 21.7847 32.2435 21.7232C32.4281 21.6616 32.5512 21.7232 32.7358 21.7847C32.9204 21.8463 33.1666 21.9078 33.2897 21.8462C33.4743 21.7232 34.4589 20.1232 34.4589 18.3385Z" fill="#CEBFFF"/>
<path d="M23.5703 23.3844C23.5703 23.3844 24.3088 24.6152 25.1703 25.2306C25.1703 25.2306 28.9858 25.9075 31.9396 22.5229L31.2011 22.2767C31.1396 22.2767 26.8934 25.5998 23.5703 23.3844Z" fill="#997CF7"/>
<path d="M33.4805 22.3997C33.4805 22.3997 35.6959 25.5382 39.5113 25.4766C39.5113 25.4766 41.1113 24.7381 41.3574 23.692C41.3574 23.692 35.8805 24.492 33.6651 21.8458L33.4805 22.3997Z" fill="#997CF7"/>
<path d="M9.72654 19.1092C9.50823 19.4003 9.58101 19.8369 9.8721 20.0552L10.8181 20.7101L10.1632 21.6562C9.94488 21.9472 10.0176 22.3839 10.3087 22.6022C10.5998 22.8205 11.0365 22.7477 11.2548 22.4566L11.9097 21.5106L12.8557 22.1655C13.1468 22.3838 13.5835 22.3111 13.8018 22.02C14.0201 21.7289 13.9473 21.2923 13.6562 21.074L12.7102 20.419L13.3651 19.473C13.5834 19.1819 13.5106 18.7453 13.2196 18.527C12.9285 18.3086 12.4919 18.3814 12.2735 18.6725L11.6186 19.6185L10.6726 18.9636C10.3815 18.7453 9.94486 18.8181 9.72654 19.1092Z" fill="white"/>
<path d="M53.7265 35.109C53.5082 35.4001 53.581 35.8367 53.8721 36.0551L54.8181 36.71L54.1632 37.656C53.9449 37.9471 54.0176 38.3837 54.3087 38.6021C54.5998 38.8204 55.0365 38.7476 55.2548 38.4565L55.9097 37.5105L56.8557 38.1654C57.1468 38.3837 57.5835 38.311 57.8018 38.0199C58.0201 37.7288 57.9473 37.2921 57.6562 37.0738L56.7102 36.4189L57.3651 35.4729C57.5834 35.1818 57.5106 34.7452 57.2196 34.5268C56.9285 34.3085 56.4919 34.3813 56.2735 34.6724L55.6186 35.6184L54.6726 34.9635C54.3815 34.7452 53.9449 34.818 53.7265 35.109Z" fill="white"/>
</g>
</svg>
