<svg width="64" height="64" viewBox="0 0 64 64" fill="none" xmlns="http://www.w3.org/2000/svg">
<mask id="mask0" mask-type="alpha" maskUnits="userSpaceOnUse" x="0" y="0" width="64" height="64">
<circle cx="32" cy="32" r="32" fill="#7C62E3"/>
</mask>
<g mask="url(#mask0)">
<circle cx="32" cy="32" r="32" fill="#7C62E3"/>
<path d="M8.12693 6.30912C7.90862 6.6002 7.9814 7.03682 8.27249 7.25513L9.2185 7.91005L8.56359 8.85611C8.34528 9.1472 8.41801 9.58382 8.7091 9.80213C9.00018 10.0204 9.43685 9.94767 9.65516 9.65658L10.3101 8.71056L11.2561 9.36548C11.5472 9.58379 11.9838 9.51105 12.2022 9.21997C12.4205 8.92888 12.3477 8.49222 12.0566 8.27391L11.1106 7.61899L11.7655 6.67297C11.9838 6.38189 11.911 5.94522 11.6199 5.72691C11.3289 5.5086 10.8922 5.58138 10.6739 5.87246L10.019 6.81848L9.07295 6.16356C8.78187 5.94525 8.34525 6.01803 8.12693 6.30912Z" fill="white"/>
<path d="M53.7265 35.1092C53.5082 35.4003 53.581 35.8369 53.8721 36.0552L54.8181 36.7101L54.1632 37.6562C53.9449 37.9472 54.0176 38.3839 54.3087 38.6022C54.5998 38.8205 55.0365 38.7477 55.2548 38.4566L55.9097 37.5106L56.8557 38.1655C57.1468 38.3838 57.5835 38.3111 57.8018 38.02C58.0201 37.7289 57.9473 37.2923 57.6562 37.074L56.7102 36.419L57.3651 35.473C57.5834 35.1819 57.5106 34.7453 57.2196 34.527C56.9285 34.3086 56.4919 34.3814 56.2735 34.6725L55.6186 35.6185L54.6726 34.9636C54.3815 34.7453 53.9449 34.8181 53.7265 35.1092Z" fill="white"/>
<path d="M15.2198 16.8776C14.5465 17.4065 14.4502 18.4645 15.0274 19.1858C15.6046 19.9072 16.6627 20.0033 17.336 19.4744C18.0094 18.9454 18.1056 17.8874 17.5284 17.1661C16.9513 16.4448 15.9412 16.3005 15.2198 16.8776ZM16.7589 18.6568C16.4703 18.8973 16.0374 18.8492 15.797 18.5607C15.5565 18.2721 15.6046 17.8393 15.845 17.647C16.1336 17.4065 16.5665 17.4546 16.807 17.7432C17.0475 18.0317 16.9994 18.4645 16.7589 18.6568Z" fill="white"/>
<path d="M12.3806 14.8783L13.3907 15.1669L12.9578 14.2051L13.535 13.3876L12.525 13.4357L11.8516 12.6182L11.6111 13.5799L10.6973 13.9166L11.563 14.4936L11.6592 15.5035L12.3806 14.8783Z" fill="white"/>
<path d="M20.7026 12.7896L19.6445 11.8279L20.6065 10.7699L21.6165 11.7317L20.7026 12.7896Z" fill="white"/>
<path d="M26.734 50.0331C25.2911 49.6484 24.4254 48.2538 24.8102 46.9073L27.3593 38.059L32.6499 39.4054L30.1008 48.2538C29.716 49.6003 28.225 50.4178 26.734 50.0331Z" fill="#F9C69E"/>
<path d="M0.615234 47.0032C0.615234 47.0032 10.2826 48.6863 18.1224 59.5544C18.1224 59.5544 5.61728 60.1314 0.615234 47.0032Z" fill="#E5E5F3"/>
<path d="M21.6349 41.8099L13.1699 35.895L17.6429 30.3647L26.0598 36.2797L21.6349 41.8099Z" fill="#F9C69E"/>
<path d="M35.6308 44.9837C34.236 45.5607 32.6007 44.9356 32.0235 43.6372L28.1758 35.2216L33.2259 33.2019L37.0737 41.6174C37.6989 42.9158 37.0256 44.4547 35.6308 44.9837Z" fill="#F9C69E"/>
<path d="M25.385 22.7666L16.7276 26.6618C11.6774 26.5656 12.2065 31.1341 12.2065 31.1341L1.76953 55.1785L12.1584 63.1131L17.93 53.2549C17.93 53.2549 26.8279 53.0626 28.0784 41.3289L23.413 37.0971L20.1905 37.9627C20.1905 37.9627 22.0182 31.4707 25.385 22.7666Z" fill="#F9EBDC"/>
<path d="M27.7419 34.2596L31.1086 29.9316C31.2048 29.8354 31.3491 29.7873 31.4453 29.8835L33.2249 31.0857C33.3211 31.1819 33.3692 31.3261 33.273 31.4223L29.9062 35.7503C29.81 35.8465 29.6657 35.8946 29.5695 35.7984L27.79 34.5962C27.6938 34.5 27.6457 34.3557 27.7419 34.2596Z" stroke="#006B6E" stroke-width="0.8002" stroke-miterlimit="10"/>
<path d="M12.4966 66.287L18.124 59.5065C10.0437 58.16 4.17596 53.9282 0.616815 46.9553L-2.1247 53.7839C-2.65376 54.9862 -2.84614 55.7075 -2.26898 56.525C1.38636 61.9109 3.45449 64.2673 10.0918 67.0564C10.9576 67.4412 11.9195 67.0084 12.4966 66.287Z" fill="#FAFAFA"/>
<path d="M19.183 37.8181C18.5096 37.8181 17.9325 37.7219 17.4996 37.5777C17.1148 37.4815 16.9225 37.0968 17.0187 36.7121C17.1148 36.3273 17.4996 36.135 17.8844 36.2312C18.4615 36.4235 19.4235 36.5197 20.6259 36.1831C21.0107 36.0869 21.3954 36.2793 21.4916 36.664C21.5878 37.0487 21.3954 37.4334 21.0107 37.5296C20.3373 37.7219 19.7121 37.8181 19.183 37.8181Z" fill="#F9C69E"/>
<path d="M21.0573 37.7703L26.2998 7.18582C26.396 6.65684 26.9251 6.32022 27.4541 6.4164L46.2599 9.30173C46.789 9.39791 47.1737 9.87879 47.0775 10.4078L41.835 40.9923C41.7388 41.5212 41.2098 41.8579 40.6807 41.7617L21.8749 38.8764C21.3458 38.8283 21.0092 38.2993 21.0573 37.7703Z" fill="#9A81FD"/>
<path d="M35.918 41.1366L41.4972 8.48425L46.4511 9.25367C46.9321 9.34985 47.2688 9.83074 47.1726 10.3597L41.9782 41.0885C41.882 41.6175 41.3529 42.0022 40.8719 41.906L35.918 41.1366Z" fill="white"/>
<path d="M27.0234 19.4485C28.0335 15.5052 28.3702 13.3412 28.7549 9.39795C28.7549 9.39795 33.3722 10.504 36.3542 10.6002C36.8833 10.6002 37.749 10.6002 37.749 10.6002L35.9694 21.0835C35.9694 21.0835 35.1518 20.795 34.6708 20.6507C34.4784 20.6026 34.2379 20.5065 33.9974 20.4584C31.1116 19.737 27.0234 19.4485 27.0234 19.4485Z" fill="#FF4B81"/>
<path d="M34.0433 15.3126C34.1395 14.6875 33.9952 14.1585 33.7066 13.7257C33.3699 13.2929 32.8409 12.9563 32.1675 12.8601L32.0232 13.7738C32.408 13.8219 32.6485 13.9662 32.8409 14.2066C33.0333 14.447 33.0813 14.7356 33.0332 15.1203C32.9851 15.505 32.7928 15.7935 32.5523 15.9859C32.3118 16.1301 31.9751 16.1782 31.6385 16.1301L31.4941 17.0438C32.1675 17.14 32.7447 17.0438 33.2256 16.7072C33.6104 16.4187 33.9471 15.9378 34.0433 15.3126Z" fill="white"/>
<path d="M45.3492 12.0908L45.4935 11.2732L42.0786 10.7924L41.9824 11.5618L45.3492 12.0908Z" fill="#CBBEFF"/>
<path d="M44.2925 18.2463L44.3887 17.7654L41.022 17.2365L40.9258 17.7173L44.2925 18.2463Z" fill="#CBBEFF"/>
<path d="M45.0113 14.0624L45.2037 12.8602L41.8369 12.3312L41.6445 13.5334L45.0113 14.0624Z" fill="#CBBEFF"/>
<path d="M43.9546 20.2177L44.147 19.0154L40.7803 18.5345L40.5879 19.7368L43.9546 20.2177Z" fill="#CBBEFF"/>
<path d="M44.5321 16.9476L44.8687 14.8798L41.502 14.3989L41.1172 16.4667L44.5321 16.9476Z" fill="#CBBEFF"/>
<path d="M41.0172 37.7221L41.0653 37.1932L37.6985 36.6642L37.6504 37.1932L41.0172 37.7221Z" fill="#CBBEFF"/>
<path d="M40.6832 39.6938L40.8755 38.4916L37.5088 37.9626L37.3164 39.1649L40.6832 39.6938Z" fill="#CBBEFF"/>
<path d="M41.2125 36.4238L41.5491 34.356L38.1824 33.827L37.8457 35.8948L41.2125 36.4238Z" fill="#CBBEFF"/>
<path d="M43.0894 25.4595L43.2337 24.642L39.8669 24.113L39.7227 24.9305L43.0894 25.4595Z" fill="#CBBEFF"/>
<path d="M42.0308 31.6147L42.127 31.0857L38.7603 30.5568L38.6641 31.0857L42.0308 31.6147Z" fill="#CBBEFF"/>
<path d="M42.7515 27.4309L42.9439 26.1806L39.5772 25.6997L39.3848 26.9019L42.7515 27.4309Z" fill="#CBBEFF"/>
<path d="M41.6949 33.5864L41.8873 32.3842L38.5205 31.8552L38.3281 33.0574L41.6949 33.5864Z" fill="#CBBEFF"/>
<path d="M42.271 30.3164L42.6077 28.2486L39.241 27.7196L38.9043 29.7874L42.271 30.3164Z" fill="#CBBEFF"/>
<path d="M43.3277 23.8724L43.8087 20.9871L40.4419 20.4581L39.9609 23.3435L43.3277 23.8724Z" fill="#CBBEFF"/>
<path d="M35.4862 29.1624C35.4381 29.1144 35.3419 29.0663 35.2938 29.0182C32.8408 27.4793 29.6184 28.4411 28.2236 30.9417L27.3578 32.5287L26.4921 33.6347C21.5863 38.9726 18.1714 37.7223 18.1714 37.7223C18.1714 37.7223 18.46 40.7519 19.0852 42.8197L17.498 44.7913L23.0292 48.6865L25.434 45.705C26.3478 46.0897 27.0693 45.9454 27.5021 44.6951C28.1274 42.9639 34.6204 34.5003 35.8709 32.8172C36.0633 32.5287 36.2557 32.2882 36.3519 31.9516C36.6405 30.8456 36.4481 29.8357 35.4862 29.1624Z" fill="#F9EBDC"/>
<path d="M32.0219 34.1635L30.579 33.2498C29.8575 32.817 29.5689 32.0476 29.9056 31.5667L30.8194 30.2683C31.4928 29.3066 33.2243 29.2585 34.6191 30.1241C35.4367 30.653 35.8215 31.5186 35.3886 32.0476L33.9457 34.0193C33.6571 34.5963 32.7914 34.6444 32.0219 34.1635Z" fill="#EADDCF"/>
<path d="M12.2836 63.2498C13.0872 62.5961 13.5348 61.8157 13.2833 61.5067C13.0319 61.1976 12.1766 61.477 11.373 62.1307C10.5694 62.7844 10.1218 63.5648 10.3733 63.8739C10.6247 64.1829 11.48 63.9035 12.2836 63.2498Z" fill="white"/>
<path d="M22.3079 30.557C22.3079 30.557 17.9311 32.0958 18.9892 36.5681L20.1436 37.1452L21.1055 37.4337L22.3079 30.557Z" fill="#F9C69E"/>
<path d="M34.6665 32.0475C34.9321 32.0475 35.1475 31.8322 35.1475 31.5666C35.1475 31.301 34.9321 31.0857 34.6665 31.0857C34.4009 31.0857 34.1855 31.301 34.1855 31.5666C34.1855 31.8322 34.4009 32.0475 34.6665 32.0475Z" fill="white"/>
</g>
</svg>
