<svg width="64" height="64" viewBox="0 0 64 64" fill="none" xmlns="http://www.w3.org/2000/svg">
<circle cx="32" cy="32" r="32" fill="#7C62E3"/>
<path d="M12.3965 25.9535L16.9013 46.5983C17.1829 47.7257 18.1402 48.5712 19.2664 48.5712H44.775C45.9012 48.5712 46.8585 47.7257 47.14 46.5983L51.6448 25.9535H12.3965ZM20.8994 45.1186C20.8431 45.1186 20.7304 45.1186 20.6741 45.1186C20.0547 45.1186 19.4916 44.6254 19.379 43.9208L17.6897 33.9859C17.5771 33.2109 18.0276 32.5063 18.7596 32.3653C19.4916 32.2244 20.1673 32.7176 20.3363 33.4927L22.0256 43.4276C22.0819 44.2731 21.6314 44.9777 20.8994 45.1186ZM26.4178 45.1186C26.3615 45.1186 26.3615 45.1186 26.3052 45.1186C25.6294 45.1186 25.01 44.555 24.9537 43.7799L24.278 33.845C24.2217 33.0699 24.7848 32.3653 25.5168 32.3653C26.2489 32.2949 26.8683 32.929 26.9246 33.7041L27.6003 43.639C27.7129 44.414 27.1498 45.1186 26.4178 45.1186ZM33.344 43.7094C33.344 44.4845 32.7246 45.1186 31.9925 45.1186C31.2605 45.1186 30.6411 44.4845 30.6411 43.7094V33.7746C30.6411 32.9995 31.2605 32.3653 31.9925 32.3653C32.7246 32.3653 33.344 32.9995 33.344 33.7746V43.7094ZM39.0313 43.8503C38.975 44.6254 38.4119 45.1891 37.6799 45.1891C37.6236 45.1891 37.6235 45.1891 37.5672 45.1891C36.8352 45.1186 36.2721 44.4845 36.3284 43.7094L37.0041 33.7746C37.0604 32.9995 37.6799 32.4358 38.4119 32.4358C39.1439 32.5063 39.707 33.1404 39.6507 33.9155L39.0313 43.8503ZM46.3517 34.0564L44.6624 43.9913C44.5497 44.6959 43.9866 45.1891 43.3672 45.1891C43.3109 45.1891 43.1983 45.1891 43.142 45.1891C42.4099 45.0482 41.9594 44.3436 42.0721 43.5685L43.7614 33.6336C43.874 32.8586 44.606 32.3654 45.3381 32.5063C46.0138 32.5767 46.4643 33.2813 46.3517 34.0564Z" fill="#CEBFFF"/>
<path d="M50.4475 30.2461H13.593C11.8006 30.2461 10.4004 28.7289 10.4004 26.92C10.4004 25.0527 11.8567 23.5939 13.593 23.5939H50.4475C52.2398 23.5939 53.6401 25.1111 53.6401 26.92C53.6401 28.7289 52.1838 30.2461 50.4475 30.2461Z" fill="#997CF7"/>
<path d="M31.689 28.6144C32.7912 28.6144 33.6847 27.7209 33.6847 26.6187C33.6847 25.5165 32.7912 24.623 31.689 24.623C30.5869 24.623 29.6934 25.5165 29.6934 26.6187C29.6934 27.7209 30.5869 28.6144 31.689 28.6144Z" fill="#7C56E9"/>
<path d="M31.8586 27.2724C31.589 27.3182 31.2655 27.2266 31.1577 26.9976L25.7646 16.0507C25.6029 15.7759 25.7646 15.4553 26.0881 15.3637C26.4117 15.2263 26.7891 15.3637 26.8969 15.6385L32.29 26.5855C32.4517 26.8603 32.29 27.1808 31.9665 27.2724C31.9665 27.2266 31.9125 27.2724 31.8586 27.2724Z" fill="#CEBFFF"/>
<path d="M38.885 15.1822C38.685 14.0488 37.5517 13.3155 36.4184 13.5822C35.2184 13.7822 34.4851 14.8488 34.6851 15.9822C34.8851 17.1155 36.0184 17.8488 37.1517 17.5821C38.285 17.3155 39.085 16.2488 38.885 15.1822ZM35.8851 15.7155C35.8184 15.2488 36.1517 14.8488 36.6184 14.7155C37.0851 14.5822 37.5517 14.9155 37.6184 15.3821C37.685 15.8488 37.3517 16.2488 36.885 16.3821C36.4184 16.4488 35.9517 16.1821 35.8851 15.7155Z" fill="white"/>
<path d="M15.3175 52.6496C15.1175 52.9163 15.1841 53.3163 15.4508 53.5163L16.3174 54.1162L15.7175 54.9829C15.5175 55.2496 15.5841 55.6496 15.8508 55.8496C16.1175 56.0495 16.5175 55.9829 16.7175 55.7162L17.3174 54.8496L18.1841 55.4496C18.4508 55.6496 18.8507 55.5829 19.0507 55.3162C19.2507 55.0496 19.1841 54.6496 18.9174 54.4496L18.0508 53.8496L18.6507 52.9829C18.8507 52.7163 18.7841 52.3163 18.5174 52.1163C18.2508 51.9163 17.8507 51.983 17.6507 52.2496L17.0508 53.1163L16.1841 52.5163C15.9175 52.2496 15.5175 52.3163 15.3175 52.6496Z" fill="white"/>
<path d="M39.3337 5.33331L38.4004 6.26662L39.667 6.39996L40.3337 7.53326L40.867 6.33329L42.2003 6.13328L41.2003 5.26664L41.4003 4L40.2671 4.66665L39.067 4.06667L39.3337 5.33331Z" fill="white"/>
<path d="M12.9333 10.1334L12 11.0667L13.3333 11.2L13.9333 12.3333L14.5333 11.1333L15.8666 10.9333L14.8666 10.0667L15.0666 8.80005L13.9333 9.40003L12.7333 8.86672L12.9333 10.1334Z" fill="white"/>
<path d="M59.2012 24.6666L60.2678 23.2L61.8011 24.1999L60.7345 25.6666L59.2012 24.6666Z" fill="white"/>
<path d="M46.5167 15.0497C46.3167 15.3163 46.3834 15.7163 46.65 15.9163L47.5167 16.5163L46.9167 17.383C46.7167 17.6496 46.7833 18.0496 47.05 18.2496C47.3167 18.4496 47.7167 18.3829 47.9167 18.1163L48.5166 17.2496L49.3833 17.8496C49.6499 18.0496 50.05 17.9829 50.25 17.7163C50.45 17.4496 50.3833 17.0496 50.1166 16.8496L49.25 16.2496L49.8499 15.383C50.0499 15.1163 49.9833 14.7163 49.7166 14.5163C49.4499 14.3163 49.05 14.383 48.85 14.6496L48.25 15.5163L47.3833 14.9163C47.1167 14.7163 46.7167 14.783 46.5167 15.0497Z" fill="white"/>
<path d="M23.2012 6.26668L24.2678 4.80005L25.8011 5.73336L24.7345 7.26666L23.2012 6.26668Z" fill="white"/>
<path d="M17.7969 16.1296L18.8635 14.663L20.3968 15.6629L19.3302 17.1296L17.7969 16.1296Z" fill="white"/>
</svg>
